<svg id="visual" viewBox="0 0 1920 1080" width="1920" height="1080" xmlns="http://www.w3.org/2000/svg" xmlns:xlink="http://www.w3.org/1999/xlink" version="1.1"><path d="M0 206L64 227.7C128 249.3 256 292.7 384 310.7C512 328.7 640 321.3 768 305.2C896 289 1024 264 1152 264C1280 264 1408 289 1536 303.3C1664 317.7 1792 321.3 1856 323.2L1920 325L1920 0L1856 0C1792 0 1664 0 1536 0C1408 0 1280 0 1152 0C1024 0 896 0 768 0C640 0 512 0 384 0C256 0 128 0 64 0L0 0Z" fill="#0066ff"></path><path d="M0 422L64 445.5C128 469 256 516 384 517.8C512 519.7 640 476.3 768 445.7C896 415 1024 397 1152 409.7C1280 422.3 1408 465.7 1536 490.8C1664 516 1792 523 1856 526.5L1920 530L1920 323L1856 321.2C1792 319.3 1664 315.7 1536 301.3C1408 287 1280 262 1152 262C1024 262 896 287 768 303.2C640 319.3 512 326.7 384 308.7C256 290.7 128 247.3 64 225.7L0 204Z" fill="#0957ea"></path><path d="M0 530L64 557C128 584 256 638 384 643.5C512 649 640 606 768 573.7C896 541.3 1024 519.7 1152 530.3C1280 541 1408 584 1536 612.8C1664 641.7 1792 656.3 1856 663.7L1920 671L1920 528L1856 524.5C1792 521 1664 514 1536 488.8C1408 463.7 1280 420.3 1152 407.7C1024 395 896 413 768 443.7C640 474.3 512 517.7 384 515.8C256 514 128 467 64 443.5L0 420Z" fill="#0c47d4"></path><path d="M0 649L64 674.2C128 699.3 256 749.7 384 753.3C512 757 640 714 768 681.7C896 649.3 1024 627.7 1152 633C1280 638.3 1408 670.7 1536 703C1664 735.3 1792 767.7 1856 783.8L1920 800L1920 669L1856 661.7C1792 654.3 1664 639.7 1536 610.8C1408 582 1280 539 1152 528.3C1024 517.7 896 539.3 768 571.7C640 604 512 647 384 641.5C256 636 128 582 64 555L0 528Z" fill="#0b39c0"></path><path d="M0 962L64 967.5C128 973 256 984 384 985.8C512 987.7 640 980.3 768 978.5C896 976.7 1024 980.3 1152 973.2C1280 966 1408 948 1536 944.3C1664 940.7 1792 951.3 1856 956.7L1920 962L1920 798L1856 781.8C1792 765.7 1664 733.3 1536 701C1408 668.7 1280 636.3 1152 631C1024 625.7 896 647.3 768 679.7C640 712 512 755 384 751.3C256 747.7 128 697.3 64 672.2L0 647Z" fill="#062aac"></path><path d="M0 1081L64 1081C128 1081 256 1081 384 1081C512 1081 640 1081 768 1081C896 1081 1024 1081 1152 1081C1280 1081 1408 1081 1536 1081C1664 1081 1792 1081 1856 1081L1920 1081L1920 960L1856 954.7C1792 949.3 1664 938.7 1536 942.3C1408 946 1280 964 1152 971.2C1024 978.3 896 974.7 768 976.5C640 978.3 512 985.7 384 983.8C256 982 128 971 64 965.5L0 960Z" fill="#001b98"></path></svg>