<svg id="visual" viewBox="0 0 1920 70" width="1920" height="70" xmlns="http://www.w3.org/2000/svg" xmlns:xlink="http://www.w3.org/1999/xlink" version="1.1"><rect x="0" y="0" width="1920" height="70" fill="#0066FF"></rect><path d="M0 50L11 51.3C22 52.7 44 55.3 66 57.7C88 60 110 62 132.2 62.7C154.3 63.3 176.7 62.7 198.8 61C221 59.3 243 56.7 265 56C287 55.3 309 56.7 331 55.3C353 54 375 50 397 49.3C419 48.7 441 51.3 463.2 52.2C485.3 53 507.7 52 529.8 50.7C552 49.3 574 47.7 596 48C618 48.3 640 50.7 662 52.8C684 55 706 57 728 56.7C750 56.3 772 53.7 794.2 54C816.3 54.3 838.7 57.7 860.8 59C883 60.3 905 59.7 927 57.2C949 54.7 971 50.3 993 50.7C1015 51 1037 56 1059.2 56.2C1081.3 56.3 1103.7 51.7 1125.8 49C1148 46.3 1170 45.7 1192 45.5C1214 45.3 1236 45.7 1258 48.2C1280 50.7 1302 55.3 1324 58C1346 60.7 1368 61.3 1390.2 62C1412.3 62.7 1434.7 63.3 1456.8 60.5C1479 57.7 1501 51.3 1523 48.5C1545 45.7 1567 46.3 1589 47.7C1611 49 1633 51 1655 51.7C1677 52.3 1699 51.7 1721.2 51.5C1743.3 51.3 1765.7 51.7 1787.8 53C1810 54.3 1832 56.7 1854 56.7C1876 56.7 1898 54.3 1909 53.2L1920 52L1920 71L1909 71C1898 71 1876 71 1854 71C1832 71 1810 71 1787.8 71C1765.7 71 1743.3 71 1721.2 71C1699 71 1677 71 1655 71C1633 71 1611 71 1589 71C1567 71 1545 71 1523 71C1501 71 1479 71 1456.8 71C1434.7 71 1412.3 71 1390.2 71C1368 71 1346 71 1324 71C1302 71 1280 71 1258 71C1236 71 1214 71 1192 71C1170 71 1148 71 1125.8 71C1103.7 71 1081.3 71 1059.2 71C1037 71 1015 71 993 71C971 71 949 71 927 71C905 71 883 71 860.8 71C838.7 71 816.3 71 794.2 71C772 71 750 71 728 71C706 71 684 71 662 71C640 71 618 71 596 71C574 71 552 71 529.8 71C507.7 71 485.3 71 463.2 71C441 71 419 71 397 71C375 71 353 71 331 71C309 71 287 71 265 71C243 71 221 71 198.8 71C176.7 71 154.3 71 132.2 71C110 71 88 71 66 71C44 71 22 71 11 71L0 71Z" fill="#2815ff" stroke-linecap="round" stroke-linejoin="miter"></path></svg>