<svg id="visual" viewBox="0 0 900 600" width="900" height="600" xmlns="http://www.w3.org/2000/svg" xmlns:xlink="http://www.w3.org/1999/xlink" version="1.1"><path d="M0 55L13.7 61C27.3 67 54.7 79 82 89C109.3 99 136.7 107 163.8 110C191 113 218 111 245.2 104C272.3 97 299.7 85 327 75C354.3 65 381.7 57 409 60C436.3 63 463.7 77 491 86C518.3 95 545.7 99 573 97C600.3 95 627.7 87 654.8 90C682 93 709 107 736.2 113C763.3 119 790.7 117 818 106C845.3 95 872.7 75 886.3 65L900 55L900 0L886.3 0C872.7 0 845.3 0 818 0C790.7 0 763.3 0 736.2 0C709 0 682 0 654.8 0C627.7 0 600.3 0 573 0C545.7 0 518.3 0 491 0C463.7 0 436.3 0 409 0C381.7 0 354.3 0 327 0C299.7 0 272.3 0 245.2 0C218 0 191 0 163.8 0C136.7 0 109.3 0 82 0C54.7 0 27.3 0 13.7 0L0 0Z" fill="#0066ff"></path><path d="M0 145L13.7 144C27.3 143 54.7 141 82 144C109.3 147 136.7 155 163.8 160C191 165 218 167 245.2 160C272.3 153 299.7 137 327 132C354.3 127 381.7 133 409 141C436.3 149 463.7 159 491 160C518.3 161 545.7 153 573 147C600.3 141 627.7 137 654.8 147C682 157 709 181 736.2 185C763.3 189 790.7 173 818 158C845.3 143 872.7 129 886.3 122L900 115L900 53L886.3 63C872.7 73 845.3 93 818 104C790.7 115 763.3 117 736.2 111C709 105 682 91 654.8 88C627.7 85 600.3 93 573 95C545.7 97 518.3 93 491 84C463.7 75 436.3 61 409 58C381.7 55 354.3 63 327 73C299.7 83 272.3 95 245.2 102C218 109 191 111 163.8 108C136.7 105 109.3 97 82 87C54.7 77 27.3 65 13.7 59L0 53Z" fill="#0b53e4"></path><path d="M0 253L13.7 253C27.3 253 54.7 253 82 277C109.3 301 136.7 349 163.8 368C191 387 218 377 245.2 367C272.3 357 299.7 347 327 330C354.3 313 381.7 289 409 276C436.3 263 463.7 261 491 255C518.3 249 545.7 239 573 237C600.3 235 627.7 241 654.8 266C682 291 709 335 736.2 351C763.3 367 790.7 355 818 336C845.3 317 872.7 291 886.3 278L900 265L900 113L886.3 120C872.7 127 845.3 141 818 156C790.7 171 763.3 187 736.2 183C709 179 682 155 654.8 145C627.7 135 600.3 139 573 145C545.7 151 518.3 159 491 158C463.7 157 436.3 147 409 139C381.7 131 354.3 125 327 130C299.7 135 272.3 151 245.2 158C218 165 191 163 163.8 158C136.7 153 109.3 145 82 142C54.7 139 27.3 141 13.7 142L0 143Z" fill="#0c40ca"></path><path d="M0 409L13.7 407C27.3 405 54.7 401 82 418C109.3 435 136.7 473 163.8 478C191 483 218 455 245.2 451C272.3 447 299.7 467 327 464C354.3 461 381.7 435 409 407C436.3 379 463.7 349 491 346C518.3 343 545.7 367 573 373C600.3 379 627.7 367 654.8 385C682 403 709 451 736.2 464C763.3 477 790.7 455 818 428C845.3 401 872.7 369 886.3 353L900 337L900 263L886.3 276C872.7 289 845.3 315 818 334C790.7 353 763.3 365 736.2 349C709 333 682 289 654.8 264C627.7 239 600.3 233 573 235C545.7 237 518.3 247 491 253C463.7 259 436.3 261 409 274C381.7 287 354.3 311 327 328C299.7 345 272.3 355 245.2 365C218 375 191 385 163.8 366C136.7 347 109.3 299 82 275C54.7 251 27.3 251 13.7 251L0 251Z" fill="#082eb1"></path><path d="M0 601L13.7 601C27.3 601 54.7 601 82 601C109.3 601 136.7 601 163.8 601C191 601 218 601 245.2 601C272.3 601 299.7 601 327 601C354.3 601 381.7 601 409 601C436.3 601 463.7 601 491 601C518.3 601 545.7 601 573 601C600.3 601 627.7 601 654.8 601C682 601 709 601 736.2 601C763.3 601 790.7 601 818 601C845.3 601 872.7 601 886.3 601L900 601L900 335L886.3 351C872.7 367 845.3 399 818 426C790.7 453 763.3 475 736.2 462C709 449 682 401 654.8 383C627.7 365 600.3 377 573 371C545.7 365 518.3 341 491 344C463.7 347 436.3 377 409 405C381.7 433 354.3 459 327 462C299.7 465 272.3 445 245.2 449C218 453 191 481 163.8 476C136.7 471 109.3 433 82 416C54.7 399 27.3 403 13.7 405L0 407Z" fill="#001b98"></path></svg>